<?xml version="1.0" encoding="UTF-8" standalone="no"?>
<!DOCTYPE svg PUBLIC "-//W3C//DTD SVG 1.1//EN"
 "http://www.w3.org/Graphics/SVG/1.1/DTD/svg11.dtd">
<!-- Generated by graphviz version 2.38.0 (20140413.2041)
 -->
<!-- Title: %3 Pages: 1 -->
<svg width="292pt" height="80pt"
 viewBox="0.00 0.00 291.90 80.15" xmlns="http://www.w3.org/2000/svg" xmlns:xlink="http://www.w3.org/1999/xlink">
<g id="graph0" class="graph" transform="scale(1 1) rotate(0) translate(4 76.1482)">
<title>%3</title>
<polygon fill="white" stroke="none" points="-4,4 -4,-76.1482 287.896,-76.1482 287.896,4 -4,4"/>
<!-- ini -->
<g id="node1" class="node"><title>ini</title>
<ellipse fill="black" stroke="black" cx="1.8" cy="-24.1482" rx="1.8" ry="1.8"/>
</g>
<!-- q0 -->
<g id="node2" class="node"><title>q0</title>
<ellipse fill="none" stroke="black" cx="67.6" cy="-24.1482" rx="27" ry="18"/>
<text text-anchor="middle" x="67.6" y="-20.4482" font-family="Times New Roman,serif" font-size="14.00">q0</text>
</g>
<!-- ini&#45;&gt;q0 -->
<g id="edge1" class="edge"><title>ini&#45;&gt;q0</title>
<path fill="none" stroke="black" d="M3.90737,-24.1482C7.37186,-24.1482 18.4868,-24.1482 30.4158,-24.1482"/>
<polygon fill="black" stroke="black" points="30.4776,-27.6483 40.4775,-24.1482 30.4775,-20.6483 30.4776,-27.6483"/>
</g>
<!-- q1 -->
<g id="node3" class="node"><title>q1</title>
<ellipse fill="none" stroke="black" cx="164.6" cy="-54.1482" rx="27" ry="18"/>
<text text-anchor="middle" x="164.6" y="-50.4482" font-family="Times New Roman,serif" font-size="14.00">q1</text>
</g>
<!-- q0&#45;&gt;q1 -->
<g id="edge2" class="edge"><title>q0&#45;&gt;q1</title>
<path fill="none" stroke="black" d="M92.5725,-31.7185C104.023,-35.3343 117.913,-39.7208 130.363,-43.6523"/>
<polygon fill="black" stroke="black" points="129.374,-47.0104 139.964,-46.6843 131.482,-40.3354 129.374,-47.0104"/>
<text text-anchor="middle" x="116.1" y="-42.9482" font-family="Times New Roman,serif" font-size="14.00">a</text>
</g>
<!-- q2 -->
<g id="node4" class="node"><title>q2</title>
<ellipse fill="none" stroke="black" cx="259.748" cy="-24.1482" rx="20.2726" ry="20.2726"/>
<ellipse fill="none" stroke="black" cx="259.748" cy="-24.1482" rx="24.2973" ry="24.2973"/>
<text text-anchor="middle" x="259.748" y="-20.4482" font-family="Times New Roman,serif" font-size="14.00">q2</text>
</g>
<!-- q0&#45;&gt;q2 -->
<g id="edge4" class="edge"><title>q0&#45;&gt;q2</title>
<path fill="none" stroke="black" d="M93.3762,-18.7751C106.458,-16.2089 122.821,-13.4238 137.6,-12.1482 161.511,-10.0845 167.694,-10.0289 191.6,-12.1482 202.863,-13.1467 215.066,-15.0698 225.941,-17.0888"/>
<polygon fill="black" stroke="black" points="225.401,-20.5494 235.886,-19.027 226.74,-13.6787 225.401,-20.5494"/>
<text text-anchor="middle" x="164.6" y="-15.9482" font-family="Times New Roman,serif" font-size="14.00">b</text>
</g>
<!-- q1&#45;&gt;q2 -->
<g id="edge3" class="edge"><title>q1&#45;&gt;q2</title>
<path fill="none" stroke="black" d="M189.105,-46.5779C200.587,-42.8799 214.572,-38.3758 226.989,-34.3768"/>
<polygon fill="black" stroke="black" points="228.088,-37.7001 236.533,-31.303 225.942,-31.0372 228.088,-37.7001"/>
<text text-anchor="middle" x="213.6" y="-42.9482" font-family="Times New Roman,serif" font-size="14.00">b</text>
</g>
</g>
</svg>
